# xmcd
#
# Track frame offsets: 
#        150
#        12837
#        22350
#        35627
#        49230
#        61550
#        73685
#        86850
#        100927
#        115107
#        126890
#        139565
#        150040
#        162207
#        175630
#        190735
#        205397
#        216850
#        233157
#        244372
#        256352
#        268352
#
# Disc length: 3733 seconds
#
# Revision: 0
# Processed by: cddbd v1.5.2PL0 Copyright (c) Steve Scherf et al.
# Submitted via: ExactAudioCopy v0.99pb5
#
DISCID=380e9316
DTITLE=Alec ''Guitar Slim'' Seward and Louis ''Jelly Belly'' Hayes - The
DTITLE=Back Porch Boys
DYEAR=2002
DGENRE=Blues
TTITLE0=Seward and Hayes -Big Hip Mamma 
TTITLE1=Seward and Hayes -Good Boy, Long Way From Home
TTITLE2=Seward and Hayes -King Kong Blues
TTITLE3=Seward and Hayes -Sweet Woman Blues
TTITLE4=Seward and Hayes -Friday The Thirteenth Blues
TTITLE5=Seward and Hayes -Sorry Woman Blues
TTITLE6=Seward and Hayes -Be Kind Blues
TTITLE7=Seward and Hayes -Water Trough Blues
TTITLE8=Champion Jack Dupree - That's All Right With Me
TTITLE9=Champion Jack Dupree - She Can Shake It
TTITLE10=Champion Jack Dupree - Doomed
TTITLE11=Champion Jack Dupree - Rub A Little Boogie
TTITLE12=Dennis McMillon - Goin' Back Home (alternate)
TTITLE13=Seward and Hayes - Big Hio Mamma (alternate)
TTITLE14=Seward and Hayes - Sorry Woman Blues (alternate)
TTITLE15=Seward and Hayes - Be Kind Blues (alternate)
TTITLE16=Dennis McMillon - Goin' Back Home
TTITLE17=Blind Willie McTell - It's My Desire (alternate)
TTITLE18=Blind Willie McTell - River Jordan
TTITLE19=Blind Willie McTell - How About You
TTITLE20=Blind Willie McTell - It's My Desire
TTITLE21=Blind Willie McTell - Hide Me In Thy Bosom
EXTD=
EXTT0=
EXTT1=
EXTT2=
EXTT3=
EXTT4=
EXTT5=
EXTT6=
EXTT7=
EXTT8=
EXTT9=
EXTT10=
EXTT11=
EXTT12=
EXTT13=
EXTT14=
EXTT15=
EXTT16=
EXTT17=
EXTT18=
EXTT19=
EXTT20=
EXTT21=
PLAYORDER=
